<svg xmlns="http://www.w3.org/2000/svg" fill="none" viewBox="3 18 44.64 14"><path d="M12.1104 31.9971C12.0351 32.0126 11.9615 31.9647 11.9459 31.89C11.9302 31.8153 11.9785 31.7421 12.0537 31.7266C13.0896 31.509 13.7793 31.1701 14.148 30.8239C14.2993 30.6818 14.3926 30.5415 14.4299 30.4116C14.463 30.2967 14.4502 30.1897 14.3931 30.0982C14.3281 29.9941 14.2059 29.904 14.0277 29.8371C12.983 29.4447 10.7109 30.2121 8.92823 30.8143C8.29695 31.0276 7.72611 31.2204 7.28421 31.3361C5.64456 31.7656 4.30428 31.7169 3.59853 31.4101C3.32757 31.2924 3.141 31.1339 3.05478 30.9455C2.96319 30.7453 2.98416 30.5222 3.13504 30.2884C3.39921 29.879 4.09998 29.42 5.35192 28.9945C5.44046 27.4326 5.75243 25.8978 6.29034 24.4949C6.90727 22.8855 7.82151 21.4481 9.03655 20.3396C9.09306 20.2879 9.18113 20.2915 9.23326 20.3477C9.2853 20.4039 9.2816 20.4913 9.22502 20.543C8.04337 21.621 7.153 23.0223 6.55072 24.5933C6.08231 25.8153 5.78831 27.1392 5.66715 28.4931C6.40524 25.6365 7.52306 23.3533 9.02084 21.6439C10.7758 19.6407 13.0488 18.4266 15.8399 18.0016C15.916 17.9902 15.987 18.0423 15.9984 18.1178C16.0087 18.1856 15.9675 18.2493 15.904 18.27C15.3228 18.469 14.6835 18.7889 14.0333 19.1823C13.308 19.621 12.5702 20.1499 11.8841 20.704C11.8245 20.7521 11.7369 20.7431 11.6885 20.6839C11.6401 20.6248 11.6491 20.5378 11.7087 20.4897C12.4047 19.9277 13.153 19.3912 13.8883 18.9464C14.1358 18.7967 14.382 18.6572 14.6244 18.5305C12.4681 19.0846 10.6703 20.1829 9.23114 21.8257C7.73578 23.5324 6.62498 25.8282 5.89852 28.7125C5.94694 28.6111 5.99567 28.5102 6.04469 28.41C6.28883 27.9105 6.53985 27.4278 6.79774 26.9619C6.80831 26.9427 6.82274 26.9271 6.83951 26.9154L6.83996 26.9151L6.84208 26.9137L6.84246 26.9134L6.84442 26.9121L6.8445 26.912L6.84676 26.9107L6.84721 26.9104L6.8482 26.9098L6.85016 26.9086L6.85114 26.9081L6.85303 26.907C6.85983 26.9034 6.86693 26.9003 6.87441 26.8977L6.87471 26.8976L6.87728 26.8968L6.87841 26.8964L6.88045 26.8958L6.88083 26.8957L6.88317 26.895L6.884 26.8948L6.88665 26.8941L6.88732 26.894L6.89012 26.8933L6.89057 26.8932L6.89359 26.8926H6.89382L6.89397 26.8926C9.12901 26.4605 10.7937 25.7326 11.8997 24.6869C12.9523 23.6919 13.5012 22.4033 13.5569 20.8025C12.7907 21.1183 12.0402 21.5775 11.301 22.1696C10.4954 22.8147 9.70348 23.6169 8.91939 24.5621L8.89847 24.5874C8.8965 24.5903 8.89431 24.5931 8.89205 24.5958L8.86425 24.6296C8.81545 24.6888 8.7276 24.6975 8.66807 24.6491C8.60847 24.6007 8.59971 24.5135 8.64843 24.4543L8.67631 24.4205C8.67873 24.4177 8.68114 24.4149 8.68371 24.4123L8.70471 24.3868C9.50134 23.4264 10.3067 22.6109 11.1266 21.9543C11.9508 21.2942 12.7901 20.794 13.6508 20.4675C13.7227 20.4404 13.8033 20.4762 13.8306 20.5476C13.8384 20.568 13.8411 20.5891 13.8392 20.6095C13.8219 22.3796 13.2435 23.7981 12.0915 24.8871C10.9564 25.9601 9.2668 26.7076 7.0106 27.1516C6.76473 27.598 6.52633 28.0576 6.29525 28.5301C6.25605 28.6102 6.21707 28.6907 6.17832 28.7716C6.68126 28.6912 7.07496 28.7472 7.31231 28.8698C7.47842 28.9555 7.57956 29.0769 7.60464 29.2156C7.63017 29.3575 7.57548 29.5056 7.42909 29.64C7.16259 29.8847 6.54173 30.1057 5.47649 30.1422C5.45451 30.144 5.43177 30.1407 5.41009 30.1316C5.35457 30.1082 5.32239 30.053 5.32571 29.9964C5.32466 29.7611 5.32866 29.5259 5.33772 29.2911C4.21816 29.6819 3.59677 30.0852 3.36929 30.4376C3.27387 30.5856 3.25708 30.719 3.30869 30.8318C3.3656 30.9563 3.50329 31.0673 3.70969 31.1569C4.36652 31.4425 5.63739 31.4816 7.21343 31.0688C7.6443 30.9559 8.2116 30.7643 8.83887 30.5525C10.6629 29.9363 12.9878 29.1511 14.1258 29.5785C14.3633 29.6677 14.5322 29.7973 14.6296 29.9532C14.7294 30.1132 14.7531 30.2957 14.698 30.4873C14.6473 30.6639 14.5282 30.8472 14.3387 31.0251C13.9374 31.4021 13.2014 31.768 12.1104 31.9971ZM5.68082 29.8562C6.53834 29.8045 7.03198 29.6292 7.24062 29.4377C7.31132 29.3727 7.33988 29.3129 7.33111 29.2643C7.32175 29.2124 7.27083 29.1604 7.18374 29.1154C6.96218 29.001 6.5616 28.9613 6.03245 29.0799C5.91333 29.3348 5.79609 29.5935 5.68082 29.8562Z" fill="#df4546"></path><path d="M40.861 28.8186C40.7325 28.8186 40.6132 28.7976 40.5033 28.7558C40.3949 28.714 40.3004 28.6552 40.2199 28.5793C40.1409 28.5034 40.0789 28.4144 40.034 28.3121C39.9907 28.2099 39.969 28.0984 39.969 27.9776C39.969 27.8568 39.9907 27.7453 40.034 27.6431C40.0789 27.5409 40.1417 27.4519 40.2222 27.376C40.3027 27.3001 40.3972 27.2413 40.5056 27.1994C40.614 27.1576 40.7317 27.1367 40.8587 27.1367C40.9872 27.1367 41.1049 27.1576 41.2118 27.1994C41.3202 27.2413 41.4139 27.3001 41.4929 27.376C41.5734 27.4519 41.6361 27.5409 41.681 27.6431C41.7259 27.7438 41.7484 27.8553 41.7484 27.9776C41.7484 28.0984 41.7259 28.2107 41.681 28.3145C41.6361 28.4167 41.5734 28.5057 41.4929 28.5816C41.4139 28.6559 41.3202 28.714 41.2118 28.7558C41.1049 28.7976 40.988 28.8186 40.861 28.8186ZM40.8587 28.498C40.9315 28.498 40.9981 28.4856 41.0585 28.4608C41.1204 28.436 41.1746 28.4004 41.2211 28.354C41.2675 28.3075 41.3032 28.2525 41.3279 28.189C41.3543 28.1255 41.3674 28.0551 41.3674 27.9776C41.3674 27.9002 41.3543 27.8297 41.3279 27.7662C41.3032 27.7028 41.2675 27.6478 41.2211 27.6013C41.1762 27.5549 41.1227 27.5192 41.0608 27.4945C40.9988 27.4697 40.9315 27.4573 40.8587 27.4573C40.7859 27.4573 40.7185 27.4697 40.6566 27.4945C40.5962 27.5192 40.5428 27.5549 40.4963 27.6013C40.4498 27.6478 40.4135 27.7028 40.3871 27.7662C40.3624 27.8297 40.35 27.9002 40.35 27.9776C40.35 28.0535 40.3624 28.124 40.3871 28.189C40.4135 28.2525 40.4491 28.3075 40.494 28.354C40.5404 28.4004 40.5946 28.436 40.6566 28.4608C40.7185 28.4856 40.7859 28.498 40.8587 28.498Z" fill="#df4546"></path><path d="M37.3577 28.7901V27.1641H37.734V28.7901H37.3577Z" fill="#df4546"></path><path d="M33.4871 28.7901V27.1641H34.2258C34.4023 27.1641 34.558 27.1981 34.6927 27.2663C34.8274 27.3329 34.9327 27.4266 35.0086 27.5474C35.0845 27.6681 35.1224 27.8114 35.1224 27.9771C35.1224 28.1413 35.0845 28.2845 35.0086 28.4069C34.9327 28.5276 34.8274 28.6221 34.6927 28.6903C34.558 28.7568 34.4023 28.7901 34.2258 28.7901H33.4871ZM33.8634 28.4812H34.2072C34.3156 28.4812 34.4093 28.4611 34.4883 28.4208C34.5688 28.379 34.6307 28.3201 34.6741 28.2442C34.719 28.1684 34.7415 28.0793 34.7415 27.9771C34.7415 27.8733 34.719 27.7843 34.6741 27.71C34.6307 27.6341 34.5688 27.576 34.4883 27.5357C34.4093 27.4939 34.3156 27.473 34.2072 27.473H33.8634V28.4812Z" fill="#df4546"></path><path d="M30.4275 28.818C30.1968 28.818 30.0164 28.7538 29.8863 28.6252C29.7562 28.4967 29.6912 28.3132 29.6912 28.0747V27.1641H30.0675V28.0607C30.0675 28.2156 30.0992 28.3271 30.1627 28.3952C30.2262 28.4634 30.3153 28.4975 30.4299 28.4975C30.5445 28.4975 30.6335 28.4634 30.697 28.3952C30.7605 28.3271 30.7923 28.2156 30.7923 28.0607V27.1641H31.1639V28.0747C31.1639 28.3132 31.0989 28.4967 30.9688 28.6252C30.8387 28.7538 30.6583 28.818 30.4275 28.818Z" fill="#df4546"></path><path d="M26.682 28.7901V27.4707H26.1616V27.1641H27.5786V27.4707H27.0583V28.7901H26.682Z" fill="#df4546"></path><path d="M23.4694 28.8186C23.3393 28.8186 23.2147 28.8015 23.0954 28.7674C22.9762 28.7318 22.8802 28.6861 22.8074 28.6304L22.9351 28.347C23.0048 28.3965 23.0869 28.4376 23.1814 28.4701C23.2774 28.5011 23.3742 28.5166 23.4717 28.5166C23.5461 28.5166 23.6057 28.5096 23.6506 28.4957C23.6971 28.4802 23.7311 28.4593 23.7528 28.4329C23.7745 28.4066 23.7853 28.3764 23.7853 28.3423C23.7853 28.299 23.7683 28.2649 23.7342 28.2401C23.7002 28.2138 23.6553 28.1929 23.5995 28.1774C23.5438 28.1604 23.4818 28.1449 23.4137 28.131C23.3471 28.1155 23.2797 28.0969 23.2116 28.0752C23.145 28.0535 23.0838 28.0256 23.0281 27.9916C22.9723 27.9575 22.9266 27.9126 22.891 27.8568C22.8569 27.8011 22.8399 27.7299 22.8399 27.6431C22.8399 27.5502 22.8647 27.4658 22.9142 27.3899C22.9653 27.3125 23.0412 27.2513 23.1419 27.2064C23.2441 27.1599 23.3719 27.1367 23.5252 27.1367C23.6274 27.1367 23.728 27.1491 23.8272 27.1739C23.9263 27.1971 24.0138 27.2327 24.0897 27.2807L23.9735 27.5665C23.8976 27.5231 23.8217 27.4914 23.7459 27.4712C23.67 27.4495 23.5956 27.4387 23.5228 27.4387C23.4501 27.4387 23.3904 27.4472 23.344 27.4643C23.2975 27.4813 23.2642 27.5037 23.2441 27.5316C23.224 27.558 23.2139 27.5889 23.2139 27.6245C23.2139 27.6664 23.2309 27.7004 23.265 27.7268C23.2991 27.7515 23.344 27.7717 23.3997 27.7872C23.4555 27.8026 23.5167 27.8181 23.5832 27.8336C23.6514 27.8491 23.7188 27.8669 23.7853 27.887C23.8535 27.9072 23.9154 27.9343 23.9712 27.9683C24.0269 28.0024 24.0718 28.0473 24.1059 28.1031C24.1415 28.1588 24.1593 28.2293 24.1593 28.3145C24.1593 28.4058 24.1338 28.4895 24.0827 28.5653C24.0316 28.6412 23.9549 28.7024 23.8527 28.7489C23.7521 28.7953 23.6243 28.8186 23.4694 28.8186Z" fill="#df4546"></path><path d="M18.9019 25.6035C18.6263 25.6035 18.3733 25.5595 18.1427 25.4716C17.9119 25.3837 17.7111 25.2584 17.5401 25.0958C17.3693 24.933 17.2365 24.7422 17.1419 24.5233C17.0473 24.304 17 24.0635 17 23.8013C17 23.539 17.0473 23.2983 17.1419 23.0794C17.2365 22.8604 17.3701 22.6694 17.5427 22.507C17.7152 22.3443 17.9178 22.2189 18.1501 22.131C18.3824 22.043 18.6379 21.9992 18.9167 21.9992C19.2254 21.9992 19.5033 22.0506 19.7507 22.1533C19.9979 22.2562 20.2062 22.4056 20.3755 22.6014L19.8577 23.0794C19.7316 22.9468 19.5939 22.8478 19.4445 22.7831C19.2952 22.7184 19.1325 22.6861 18.9566 22.6861C18.7873 22.6861 18.633 22.7126 18.4935 22.7657C18.3541 22.8187 18.2339 22.8953 18.1326 22.9947C18.0314 23.0944 17.9535 23.2121 17.8987 23.3484C17.8439 23.4843 17.8165 23.6352 17.8165 23.8013C17.8165 23.9639 17.8439 24.1132 17.8987 24.2493C17.9535 24.3854 18.0314 24.504 18.1326 24.6054C18.2339 24.7065 18.3532 24.7836 18.491 24.8368C18.6288 24.8898 18.7807 24.9164 18.9466 24.9164C19.1059 24.9164 19.2611 24.8906 19.4121 24.8393C19.5631 24.7879 19.7099 24.7007 19.8527 24.578L20.3108 25.1604C20.1216 25.3031 19.9017 25.4127 19.651 25.4889C19.4005 25.5653 19.1508 25.6035 18.9019 25.6035ZM19.574 25.0558V23.7465H20.3108V25.1604L19.574 25.0558ZM23.6154 25.6035C23.3399 25.6035 23.0852 25.5586 22.8513 25.4692C22.6173 25.3795 22.4149 25.2534 22.2439 25.0906C22.073 24.928 21.9402 24.7373 21.8456 24.5181C21.7509 24.2993 21.7038 24.06 21.7038 23.8013C21.7038 23.5423 21.7509 23.3035 21.8456 23.0842C21.9402 22.8654 22.0738 22.6743 22.2463 22.5117C22.419 22.3491 22.6214 22.223 22.8538 22.1335C23.0861 22.0437 23.3383 21.9992 23.6105 21.9992C23.886 21.9992 24.1391 22.0437 24.3698 22.1335C24.6004 22.223 24.8012 22.3491 24.9721 22.5117C25.143 22.6743 25.2767 22.8645 25.373 23.082C25.4691 23.2992 25.5173 23.539 25.5173 23.8013C25.5173 24.06 25.4691 24.2999 25.373 24.5207C25.2767 24.7413 25.143 24.9323 24.9721 25.0931C24.8012 25.2543 24.6004 25.3795 24.3698 25.4692C24.1391 25.5586 23.8877 25.6035 23.6154 25.6035ZM23.6105 24.9164C23.7665 24.9164 23.91 24.8898 24.0412 24.8368C24.1722 24.7836 24.2876 24.7074 24.3871 24.6078C24.4868 24.5083 24.5639 24.3904 24.6186 24.2543C24.6734 24.1182 24.7008 23.9672 24.7008 23.8013C24.7008 23.6352 24.6734 23.4843 24.6186 23.3484C24.5639 23.2121 24.4876 23.0944 24.3897 22.9947C24.2917 22.8953 24.1764 22.8187 24.0436 22.7657C23.9109 22.7126 23.7665 22.6861 23.6105 22.6861C23.4545 22.6861 23.311 22.7126 23.1799 22.7657C23.0487 22.8187 22.9335 22.8953 22.8338 22.9947C22.7342 23.0944 22.6571 23.2121 22.6024 23.3484C22.5475 23.4843 22.5202 23.6352 22.5202 23.8013C22.5202 23.9639 22.5475 24.1141 22.6024 24.2518C22.6571 24.3896 22.7334 24.5083 22.8314 24.6078C22.9292 24.7074 23.0446 24.7836 23.1774 24.8368C23.3101 24.8898 23.4545 24.9164 23.6105 24.9164ZM26.9899 25.5436V22.0587H28.4985C28.8104 22.0587 29.0792 22.1092 29.305 22.2106C29.5306 22.3118 29.7049 22.457 29.8277 22.6462C29.9506 22.8354 30.012 23.0611 30.012 23.3232C30.012 23.5822 29.9506 23.8054 29.8277 23.9931C29.7049 24.1804 29.5306 24.324 29.305 24.4236C29.0792 24.5233 28.8104 24.573 28.4985 24.573H27.438L27.7964 24.2196V25.5436H26.9899ZM29.2053 25.5436L28.3341 24.2793H29.1954L30.0767 25.5436H29.2053ZM27.7964 24.309L27.438 23.9307H28.4536C28.7025 23.9307 28.8884 23.8768 29.0112 23.7689C29.1339 23.6611 29.1954 23.5125 29.1954 23.3232C29.1954 23.1309 29.1339 22.9815 29.0112 22.8752C28.8884 22.769 28.7025 22.716 28.4536 22.716H27.438L27.7964 22.3326V24.309ZM32.2562 23.4628H33.9339V24.09H32.2562V23.4628ZM32.3159 24.8967H34.2128V25.5436H31.5144V22.0587H34.1481V22.7061H32.3159V24.8967ZM36.8653 25.6035C36.5866 25.6035 36.3193 25.5662 36.0638 25.4915C35.8083 25.4169 35.6023 25.3198 35.4464 25.2002L35.7203 24.5928C35.8695 24.6989 36.0462 24.7862 36.2505 24.8542C36.4546 24.9223 36.6612 24.9562 36.8703 24.9562C37.0296 24.9562 37.1582 24.9406 37.2563 24.909C37.354 24.8774 37.4263 24.8334 37.4726 24.7771C37.5192 24.7206 37.5424 24.6559 37.5424 24.5828C37.5424 24.4899 37.5059 24.4162 37.4328 24.3614C37.3599 24.3067 37.2637 24.2618 37.1441 24.2269C37.0247 24.1921 36.8927 24.1588 36.7483 24.1273C36.6039 24.0959 36.4596 24.0568 36.3152 24.0103C36.1708 23.9639 36.0389 23.9042 35.9194 23.8311C35.8 23.758 35.7028 23.6619 35.6281 23.5423C35.5534 23.4229 35.5161 23.2701 35.5161 23.0842C35.5161 22.8852 35.5701 22.7034 35.678 22.5391C35.7859 22.3748 35.9483 22.2438 36.1658 22.1459C36.3832 22.048 36.6562 21.9992 36.9847 21.9992C37.2038 21.9992 37.4196 22.0248 37.6319 22.0762C37.8446 22.1277 38.032 22.2048 38.1946 22.3077L37.9456 22.9201C37.783 22.8272 37.6204 22.7584 37.4578 22.7134C37.2952 22.6685 37.1356 22.6462 36.9797 22.6462C36.8238 22.6462 36.696 22.6646 36.5965 22.701C36.4969 22.7375 36.4255 22.7848 36.3825 22.843C36.3393 22.901 36.3178 22.9683 36.3178 23.0445C36.3178 23.1342 36.3541 23.2062 36.4272 23.2611C36.5002 23.3158 36.5965 23.3599 36.716 23.3929C36.8354 23.4263 36.9674 23.4593 37.1117 23.4925C37.2563 23.5257 37.4005 23.564 37.5448 23.607C37.6892 23.6502 37.8212 23.7084 37.9406 23.7813C38.0602 23.8544 38.1572 23.9506 38.2321 24.0702C38.3066 24.1896 38.3439 24.3405 38.3439 24.5233C38.3439 24.7189 38.2892 24.8982 38.1796 25.0608C38.0702 25.2234 37.9067 25.3546 37.6892 25.4542C37.4719 25.5539 37.1972 25.6035 36.8653 25.6035ZM39.3038 25.5436L40.857 22.0587H41.6536L43.212 25.5436H42.3656L41.0911 22.4668H41.4097L40.1302 25.5436H39.3038ZM40.0805 24.7969L40.2945 24.1847H42.0869L42.3057 24.7969H40.0805ZM44.4408 25.5436V22.0587H45.1077L47.1638 24.5679H46.8403V22.0587H47.6369V25.5436H46.9747L44.9137 23.0345H45.2371V25.5436H44.4408Z" fill="#df4546"></path></svg>